<svg width="16" height="16" viewBox="0 0 16 16" fill="none" xmlns="http://www.w3.org/2000/svg">
<path d="M7.3994 0.0156693C6.21349 0.128225 5.3311 0.378349 4.33294 0.88485C3.15016 1.48827 2.08942 2.43874 1.31342 3.58931C0.987995 4.07705 0.587478 4.89934 0.393477 5.48087C0.240154 5.94986 0.114992 6.4845 0.0398953 7.01288C-0.0132984 7.38182 -0.0132984 8.61368 0.0398953 8.98261C0.171315 9.90494 0.41538 10.7116 0.797123 11.4838C1.2258 12.3593 1.64822 12.9471 2.34287 13.6443C3.03439 14.3321 3.63203 14.7605 4.47375 15.1732C5.06201 15.4608 5.44062 15.6015 6.03827 15.7516C7.60279 16.1455 9.17356 16.0705 10.7005 15.5296C11.1668 15.3639 11.9741 14.9606 12.3902 14.6823C13.5323 13.9226 14.4773 12.8752 15.1 11.6714C15.6663 10.5834 15.9479 9.50161 15.9949 8.2635C16.0418 6.93159 15.7665 5.66221 15.1719 4.46787C14.7839 3.68624 14.349 3.07031 13.7388 2.44187C13.063 1.74152 12.3996 1.26004 11.5141 0.822319C10.5879 0.365843 9.72428 0.118845 8.69795 0.025049C8.37879 -0.00308992 7.65598 -0.00934311 7.3994 0.0156693ZM9.07344 0.697257C10.6567 0.941127 12.0711 1.65711 13.2038 2.79204C13.7952 3.37983 14.2238 3.97388 14.5962 4.71174C14.9466 5.40271 15.1845 6.15621 15.3034 6.95035C15.3816 7.46623 15.3847 8.52613 15.3065 9.02951C14.9998 11.0055 13.9735 12.7345 12.4215 13.8882C11.9741 14.2227 11.7269 14.3759 11.2481 14.6135C10.5597 14.9543 9.84318 15.1794 9.0265 15.3045C8.52272 15.3827 7.46198 15.3795 6.94569 15.3014C5.62836 15.1013 4.43307 14.5791 3.37858 13.7506C3.2409 13.6412 2.95929 13.3817 2.75277 13.1753C1.82345 12.2436 1.16635 11.0899 0.844059 9.82678C0.668833 9.14519 0.628155 8.78876 0.628155 7.99775C0.628155 7.2036 0.668833 6.84718 0.844059 6.16872C1.53558 3.47988 3.69774 1.39135 6.40749 0.79418C6.71101 0.728522 6.93004 0.69413 7.43069 0.637853C7.66537 0.609714 8.77618 0.650359 9.07344 0.697257Z" fill="#DADADA"/>
<path d="M7.20225 1.2913C6.23225 1.41011 5.20905 1.76654 4.42366 2.26053C4.19837 2.40435 4.16083 2.64197 4.33918 2.79204C4.47373 2.9046 4.58637 2.89209 4.86173 2.72951C5.68154 2.25115 6.4419 2.01041 7.51828 1.88535L7.681 1.86659V2.69512V3.52053L7.5089 3.54242C7.27422 3.57055 6.93628 3.74564 6.77357 3.92073C6.70161 3.99889 6.59835 4.15522 6.54515 4.2709C6.45441 4.46162 6.44502 4.50852 6.44502 4.7774C6.44502 5.04629 6.45441 5.09318 6.54515 5.2839C6.59835 5.39959 6.70161 5.55591 6.77357 5.63408C6.93628 5.80916 7.27422 5.98425 7.5089 6.01239L7.681 6.03427V6.85968V7.68509H6.61712H5.55325L5.45312 7.77576C5.35925 7.86018 5.34986 7.88206 5.36238 8.01963C5.39992 8.52301 5.35299 8.67308 5.1058 8.83566C4.99941 8.90757 4.94309 8.92008 4.77099 8.92008C4.59889 8.92008 4.54257 8.90757 4.43618 8.83566C4.18899 8.67308 4.14205 8.52301 4.1796 8.01963C4.19212 7.88206 4.18273 7.86018 4.08886 7.77576L3.98873 7.68509H2.92172H1.85785L1.87663 7.51938C2.00179 6.44698 2.24272 5.68723 2.72147 4.86807C2.88731 4.58668 2.89982 4.47725 2.77466 4.33656C2.66827 4.21775 2.4993 4.19899 2.37414 4.29591C2.32721 4.32718 2.20205 4.5179 2.09253 4.71487C0.787719 7.05666 0.987978 9.9237 2.60882 12.0748C3.50998 13.2722 4.85234 14.1664 6.2917 14.5291C9.43952 15.3295 12.6499 13.8506 14.0642 10.9523C15.2376 8.55427 14.8872 5.71224 13.1631 3.64872C11.7206 1.92599 9.43639 1.02242 7.20225 1.2913ZM8.95452 1.951C10.4001 2.16361 11.8238 2.98589 12.7594 4.15209C13.5448 5.1307 13.9798 6.21561 14.108 7.51938L14.1237 7.68509H13.3008H12.4747L12.4528 7.51313C12.4246 7.27864 12.2494 6.94097 12.0742 6.77839C11.9959 6.70648 11.8395 6.60331 11.7237 6.55015C11.5328 6.45948 11.4859 6.4501 11.2168 6.4501C10.9477 6.4501 10.9008 6.45948 10.7099 6.55015C10.5941 6.60331 10.4377 6.70648 10.3595 6.77839C10.1842 6.94097 10.009 7.27864 9.98084 7.51313L9.95894 7.68509H9.13287H8.3068V6.62206V5.55904L8.21606 5.45899C8.13158 5.36519 8.10967 5.35581 7.972 5.36832C7.58399 5.39646 7.47135 5.38708 7.34306 5.30266C7.14906 5.17447 7.07083 5.02127 7.07083 4.77428C7.07083 4.60544 7.08648 4.54916 7.15532 4.44286C7.31803 4.19586 7.46822 4.14897 7.972 4.18648C8.10967 4.19899 8.13158 4.18961 8.21606 4.09582L8.3068 3.99577V2.93274V1.87284L8.47264 1.88847C8.56026 1.89785 8.77929 1.92599 8.95452 1.951ZM11.561 7.16608C11.6267 7.20673 11.7112 7.2974 11.7519 7.35993C11.8238 7.47874 11.8364 7.6038 11.8082 7.97586C11.7957 8.11343 11.8051 8.13531 11.8989 8.21973L11.9991 8.3104H13.0629H14.1237L14.108 8.47298C13.9829 9.75487 13.5636 10.8179 12.8001 11.7965C12.5873 12.0685 12.0836 12.5688 11.7957 12.797C10.8132 13.5661 9.76181 13.9788 8.47264 14.107L8.3068 14.1227V13.3004V12.475L8.4789 12.4531C8.71358 12.4249 9.05152 12.2499 9.21423 12.0748C9.28619 11.9966 9.38945 11.8403 9.44265 11.7246C9.53339 11.5339 9.54278 11.487 9.54278 11.2181C9.54278 10.9492 9.53339 10.9023 9.44265 10.7116C9.38945 10.5959 9.28619 10.4396 9.21423 10.3614C9.05152 10.1863 8.71358 10.0112 8.4789 9.9831L8.3068 9.96122V9.13581V8.3104H9.37068H10.4346L10.5347 8.22286C10.6411 8.12593 10.6536 8.04777 10.6098 7.77889C10.5754 7.57566 10.6317 7.39432 10.7787 7.24737C10.8476 7.17859 10.9477 7.10981 11.004 7.09417C11.1699 7.04415 11.4265 7.07541 11.561 7.16608ZM3.53502 8.48236C3.56318 8.71685 3.7384 9.05452 3.91363 9.2171C3.99186 9.28901 4.14831 9.39219 4.26408 9.44534C4.45495 9.53601 4.50189 9.54539 4.77099 9.54539C5.04009 9.54539 5.08702 9.53601 5.27789 9.44534C5.39367 9.39219 5.55012 9.28901 5.62834 9.2171C5.80357 9.05452 5.9788 8.71685 6.00696 8.48236L6.02886 8.3104H6.85493H7.681V9.37343V10.4365L7.77174 10.5365C7.85622 10.6303 7.87813 10.6397 8.0158 10.6272C8.51958 10.5897 8.66977 10.6366 8.83248 10.8835C8.90445 10.9899 8.91697 11.0461 8.91697 11.2181C8.91697 11.3901 8.90445 11.4463 8.83248 11.5526C8.66977 11.7996 8.51958 11.8465 8.0158 11.809C7.87813 11.7965 7.85622 11.8059 7.77174 11.8997L7.681 11.9997V13.0628V14.1258L7.53393 14.107C7.06457 14.057 6.81738 14.0132 6.50761 13.9382C4.35483 13.4035 2.64324 11.7152 2.06437 9.55789C1.9924 9.28901 1.91417 8.83253 1.87975 8.47298L1.86411 8.3104H2.68705H3.51311L3.53502 8.48236Z" fill="#DADADA"/>
<path d="M3.30662 3.16719C3.18771 3.22035 3.1001 3.38918 3.13139 3.51111C3.16581 3.64556 3.2941 3.74561 3.43178 3.74561C3.76972 3.74561 3.86046 3.26412 3.54442 3.15469C3.42552 3.11404 3.43491 3.11404 3.30662 3.16719Z" fill="#DADADA"/>
</svg>
