<svg width="51" height="51" viewBox="0 0 51 51" fill="none" xmlns="http://www.w3.org/2000/svg">
<path d="M23.393 0.864867C19.713 1.21472 16.9749 1.99217 13.8775 3.56652C10.2073 5.44213 6.91573 8.39645 4.50774 11.9727C3.49794 13.4888 2.25511 16.0447 1.65312 17.8522C1.17734 19.31 0.788957 20.9718 0.555927 22.6141C0.390863 23.7609 0.390863 27.5898 0.555927 28.7366C0.963731 31.6034 1.72108 34.1107 2.90566 36.5111C4.23587 39.2322 5.54667 41.0592 7.70221 43.2264C9.84803 45.3644 11.7026 46.6958 14.3145 47.9786C16.1399 48.8726 17.3147 49.31 19.1693 49.7764C24.0241 51.0009 28.8983 50.7677 33.6366 49.0864C35.0833 48.5714 37.5884 47.3177 38.8798 46.4528C42.4238 44.0913 45.3561 40.8357 47.2883 37.0942C49.0458 33.7123 49.9196 30.3498 50.0653 26.5014C50.2109 22.3615 49.3565 18.4159 47.5116 14.7035C46.3077 12.274 44.958 10.3595 43.0646 8.40617C40.9674 6.2293 38.9089 4.7327 36.1611 3.37216C33.2871 1.9533 30.6072 1.18557 27.4224 0.894021C26.4321 0.806558 24.1891 0.787121 23.393 0.864867ZM28.5876 2.98343C33.5007 3.74145 37.8894 5.96691 41.4043 9.4946C43.2394 11.3216 44.5696 13.1681 45.7251 15.4616C46.8126 17.6093 47.5505 19.9514 47.9194 22.4198C48.1622 24.0233 48.1719 27.3177 47.9292 28.8824C46.9776 35.0242 43.7929 40.3984 38.9769 43.9844C37.5884 45.0242 36.8214 45.5004 35.3358 46.239C33.1997 47.2983 30.9762 47.998 28.442 48.3867C26.8787 48.6297 23.5871 48.62 21.9851 48.377C17.8973 47.755 14.1882 46.1321 10.9161 43.5568C10.4889 43.2167 9.615 42.4101 8.97417 41.7687C6.09041 38.8726 4.05139 35.2866 3.0513 31.3605C2.50756 29.2419 2.38134 28.1341 2.38134 25.6754C2.38134 23.2069 2.50756 22.0991 3.0513 19.9902C5.19713 11.6326 11.9065 5.14086 20.315 3.28469C21.2568 3.08061 21.9365 2.97371 23.49 2.79878C24.2183 2.71132 27.6652 2.83766 28.5876 2.98343Z" fill="#3D3D3D"/>
<path d="M22.7812 4.83002C19.7712 5.19931 16.5962 6.30718 14.159 7.84265C13.46 8.28969 13.3434 9.02827 13.8969 9.49474C14.3144 9.8446 14.6639 9.80573 15.5184 9.30038C18.0623 7.8135 20.4218 7.0652 23.7619 6.67647L24.2668 6.61816V9.19348V11.7591L23.7327 11.8271C23.0045 11.9146 21.9559 12.4588 21.451 13.003C21.2276 13.246 20.9072 13.7319 20.7422 14.0914C20.4606 14.6842 20.4315 14.83 20.4315 15.6658C20.4315 16.5015 20.4606 16.6473 20.7422 17.2401C20.9072 17.5997 21.2276 18.0856 21.451 18.3286C21.9559 18.8728 23.0045 19.417 23.7327 19.5045L24.2668 19.5725V22.1381V24.7037H20.9655H17.6642L17.3535 24.9855C17.0622 25.2479 17.0331 25.3159 17.0719 25.7435C17.1884 27.3082 17.0428 27.7746 16.2757 28.28C15.9456 28.5035 15.7708 28.5424 15.2368 28.5424C14.7028 28.5424 14.528 28.5035 14.1979 28.28C13.4308 27.7746 13.2852 27.3082 13.4017 25.7435C13.4405 25.3159 13.4114 25.2479 13.1201 24.9855L12.8094 24.7037H9.49843H6.19716L6.25542 24.1886C6.6438 20.8553 7.39144 18.4938 8.87702 15.9476C9.39163 15.073 9.43047 14.7328 9.04208 14.2955C8.71195 13.9262 8.18763 13.8679 7.79925 14.1692C7.6536 14.2664 7.26522 14.8592 6.92538 15.4714C2.87647 22.7503 3.49789 31.6619 8.52747 38.348C11.3238 42.0701 15.4893 44.8495 19.9557 45.9768C29.7236 48.4646 39.6856 43.8679 44.0744 34.8592C47.7155 27.4053 46.628 18.5715 41.278 12.1575C36.8019 6.80281 29.7139 3.99426 22.7812 4.83002ZM28.2186 6.88056C32.7044 7.54139 37.1223 10.0973 40.0255 13.7221C42.4626 16.7639 43.8122 20.1361 44.2103 24.1886L44.2589 24.7037H41.7052H39.1419L39.0739 24.1692C38.9865 23.4403 38.4428 22.3908 37.8991 21.8854C37.6563 21.6619 37.1708 21.3412 36.8116 21.176C36.2193 20.8942 36.0737 20.865 35.2386 20.865C34.4036 20.865 34.258 20.8942 33.6657 21.176C33.3064 21.3412 32.8209 21.6619 32.5782 21.8854C32.0345 22.3908 31.4907 23.4403 31.4033 24.1692L31.3354 24.7037H28.772H26.2087V21.3995V18.0953L25.9271 17.7843C25.6649 17.4928 25.597 17.4636 25.1698 17.5025C23.9658 17.59 23.6162 17.5608 23.2181 17.2984C22.6161 16.9 22.3734 16.4238 22.3734 15.6561C22.3734 15.1313 22.4219 14.9564 22.6355 14.6259C23.1404 13.8582 23.6065 13.7124 25.1698 13.8291C25.597 13.8679 25.6649 13.8388 25.9271 13.5472L26.2087 13.2362V9.93206V6.6376L26.7233 6.68619C26.9952 6.71535 27.6748 6.80281 28.2186 6.88056ZM36.3067 23.0905C36.5106 23.2168 36.7728 23.4986 36.899 23.693C37.1223 24.0623 37.1611 24.451 37.0738 25.6075C37.0349 26.0351 37.064 26.1031 37.3553 26.3655L37.666 26.6473H40.9673H44.2589L44.2103 27.1527C43.8219 31.1371 42.5208 34.4413 40.1517 37.4831C39.4914 38.3286 37.9282 39.8835 37.0349 40.5929C33.9861 42.9836 30.7237 44.2664 26.7233 44.6648L26.2087 44.7134V42.1575V39.5919L26.7427 39.5239C27.4709 39.4364 28.5196 38.8922 29.0245 38.348C29.2478 38.105 29.5682 37.6191 29.7333 37.2596C30.0149 36.6668 30.044 36.521 30.044 35.6852C30.044 34.8495 30.0149 34.7037 29.7333 34.1109C29.5682 33.7513 29.2478 33.2654 29.0245 33.0224C28.5196 32.4782 27.4709 31.934 26.7427 31.8465L26.2087 31.7785V29.2129V26.6473H29.51H32.8112L33.1219 26.3752C33.4521 26.0739 33.4909 25.831 33.355 24.9952C33.2482 24.3635 33.4229 23.7999 33.8793 23.3431C34.0929 23.1293 34.4036 22.9155 34.5784 22.8669C35.093 22.7115 35.8892 22.8086 36.3067 23.0905ZM11.4015 27.1818C11.4889 27.9107 12.0326 28.9602 12.5764 29.4656C12.8191 29.6891 13.3046 30.0098 13.6639 30.175C14.2561 30.4568 14.4018 30.486 15.2368 30.486C16.0718 30.486 16.2175 30.4568 16.8098 30.175C17.169 30.0098 17.6545 29.6891 17.8973 29.4656C18.441 28.9602 18.9847 27.9107 19.0721 27.1818L19.1401 26.6473H21.7034H24.2668V29.9515V33.2557L24.5483 33.5667C24.8105 33.8582 24.8785 33.8874 25.3057 33.8485C26.8689 33.7319 27.335 33.8776 27.8399 34.6454C28.0632 34.9758 28.1021 35.1507 28.1021 35.6852C28.1021 36.2197 28.0632 36.3946 27.8399 36.7251C27.335 37.4928 26.8689 37.6386 25.3057 37.522C24.8785 37.4831 24.8105 37.5122 24.5483 37.8038L24.2668 38.1148V41.4189V44.7231L23.8104 44.6648C22.354 44.5093 21.5869 44.3733 20.6257 44.14C13.9454 42.4782 8.63428 37.2304 6.838 30.5249C6.61467 29.6891 6.37194 28.2703 6.26513 27.1527L6.21658 26.6473H8.77021H11.3335L11.4015 27.1818Z" fill="#3D3D3D"/>
<path d="M10.6927 10.6607C10.3238 10.826 10.0519 11.3507 10.149 11.7297C10.2558 12.1476 10.6539 12.4586 11.0811 12.4586C12.1297 12.4586 12.4113 10.962 11.4307 10.6219C11.0617 10.4955 11.0908 10.4955 10.6927 10.6607Z" fill="#3D3D3D"/>
</svg>
